<mxfile host="Electron" modified="2024-05-30T23:28:12.709Z" agent="Mozilla/5.0 (Windows NT 10.0; Win64; x64) AppleWebKit/537.36 (KHTML, like Gecko) draw.io/24.2.5 Chrome/120.0.6099.109 Electron/28.1.0 Safari/537.36" etag="lqO2iBR5aVB8BbBZRl2K" version="24.2.5" type="device">
  <diagram name="Página-1" id="DZRybJHRkH9eOO3X0yBS">
    <mxGraphModel dx="1824" dy="1266" grid="0" gridSize="10" guides="0" tooltips="1" connect="1" arrows="1" fold="1" page="0" pageScale="1" pageWidth="827" pageHeight="1169" math="0" shadow="0">
      <root>
        <mxCell id="0" />
        <mxCell id="1" parent="0" />
        <mxCell id="fUU1L8BKX8t2LomsBppw-19" style="edgeStyle=orthogonalEdgeStyle;rounded=0;orthogonalLoop=1;jettySize=auto;html=1;endArrow=none;endFill=0;" parent="1" source="fUU1L8BKX8t2LomsBppw-1" target="fUU1L8BKX8t2LomsBppw-11" edge="1">
          <mxGeometry relative="1" as="geometry" />
        </mxCell>
        <mxCell id="fUU1L8BKX8t2LomsBppw-1" value="TAREAS" style="rounded=0;whiteSpace=wrap;html=1;" parent="1" vertex="1">
          <mxGeometry x="40" y="355" width="120" height="60" as="geometry" />
        </mxCell>
        <mxCell id="fUU1L8BKX8t2LomsBppw-2" value="PROYECTOS" style="rounded=0;whiteSpace=wrap;html=1;" parent="1" vertex="1">
          <mxGeometry x="294" y="170" width="120" height="60" as="geometry" />
        </mxCell>
        <mxCell id="fUU1L8BKX8t2LomsBppw-68" style="edgeStyle=orthogonalEdgeStyle;rounded=0;orthogonalLoop=1;jettySize=auto;html=1;entryX=0.5;entryY=1;entryDx=0;entryDy=0;endArrow=none;endFill=0;" parent="1" source="fUU1L8BKX8t2LomsBppw-3" target="fUU1L8BKX8t2LomsBppw-67" edge="1">
          <mxGeometry relative="1" as="geometry" />
        </mxCell>
        <mxCell id="fUU1L8BKX8t2LomsBppw-3" value="TANGIBLES" style="rounded=0;whiteSpace=wrap;html=1;" parent="1" vertex="1">
          <mxGeometry x="550" y="355" width="120" height="60" as="geometry" />
        </mxCell>
        <mxCell id="fUU1L8BKX8t2LomsBppw-4" value="&lt;div&gt;USUARIOS&lt;/div&gt;" style="rounded=0;whiteSpace=wrap;html=1;" parent="1" vertex="1">
          <mxGeometry x="40" y="30" width="120" height="60" as="geometry" />
        </mxCell>
        <mxCell id="fUU1L8BKX8t2LomsBppw-6" style="edgeStyle=orthogonalEdgeStyle;rounded=0;orthogonalLoop=1;jettySize=auto;html=1;endArrow=none;endFill=0;" parent="1" source="fUU1L8BKX8t2LomsBppw-5" target="fUU1L8BKX8t2LomsBppw-1" edge="1">
          <mxGeometry relative="1" as="geometry" />
        </mxCell>
        <mxCell id="fUU1L8BKX8t2LomsBppw-7" style="edgeStyle=orthogonalEdgeStyle;rounded=0;orthogonalLoop=1;jettySize=auto;html=1;entryX=0;entryY=0.5;entryDx=0;entryDy=0;endArrow=none;endFill=0;" parent="1" source="fUU1L8BKX8t2LomsBppw-5" target="fUU1L8BKX8t2LomsBppw-2" edge="1">
          <mxGeometry relative="1" as="geometry" />
        </mxCell>
        <mxCell id="fUU1L8BKX8t2LomsBppw-22" style="edgeStyle=orthogonalEdgeStyle;rounded=0;orthogonalLoop=1;jettySize=auto;html=1;entryX=0.5;entryY=1;entryDx=0;entryDy=0;endArrow=none;endFill=0;" parent="1" source="fUU1L8BKX8t2LomsBppw-5" target="fUU1L8BKX8t2LomsBppw-4" edge="1">
          <mxGeometry relative="1" as="geometry">
            <mxPoint x="-30" y="210" as="targetPoint" />
          </mxGeometry>
        </mxCell>
        <mxCell id="fUU1L8BKX8t2LomsBppw-5" value="EJECUTAR" style="shape=rhombus;perimeter=rhombusPerimeter;whiteSpace=wrap;html=1;align=center;" parent="1" vertex="1">
          <mxGeometry x="40" y="170" width="120" height="60" as="geometry" />
        </mxCell>
        <mxCell id="fUU1L8BKX8t2LomsBppw-20" style="edgeStyle=orthogonalEdgeStyle;rounded=0;orthogonalLoop=1;jettySize=auto;html=1;endArrow=none;endFill=0;" parent="1" source="fUU1L8BKX8t2LomsBppw-11" target="fUU1L8BKX8t2LomsBppw-3" edge="1">
          <mxGeometry relative="1" as="geometry" />
        </mxCell>
        <mxCell id="fUU1L8BKX8t2LomsBppw-11" value="CONTRIBUYEN A" style="shape=rhombus;perimeter=rhombusPerimeter;whiteSpace=wrap;html=1;align=center;" parent="1" vertex="1">
          <mxGeometry x="279" y="345" width="150" height="80" as="geometry" />
        </mxCell>
        <mxCell id="fUU1L8BKX8t2LomsBppw-23" value="Fecha" style="ellipse;whiteSpace=wrap;html=1;align=center;" parent="1" vertex="1">
          <mxGeometry x="-120" y="390" width="100" height="40" as="geometry" />
        </mxCell>
        <mxCell id="fUU1L8BKX8t2LomsBppw-25" value="Horas previstas" style="ellipse;whiteSpace=wrap;html=1;align=center;" parent="1" vertex="1">
          <mxGeometry x="-50" y="440" width="100" height="40" as="geometry" />
        </mxCell>
        <mxCell id="fUU1L8BKX8t2LomsBppw-26" value="Horas ejecutadas" style="ellipse;whiteSpace=wrap;html=1;align=center;" parent="1" vertex="1">
          <mxGeometry x="40" y="480" width="100" height="40" as="geometry" />
        </mxCell>
        <mxCell id="fUU1L8BKX8t2LomsBppw-37" style="edgeStyle=orthogonalEdgeStyle;rounded=0;orthogonalLoop=1;jettySize=auto;html=1;entryX=0.5;entryY=0;entryDx=0;entryDy=0;" parent="1" source="fUU1L8BKX8t2LomsBppw-29" target="fUU1L8BKX8t2LomsBppw-36" edge="1">
          <mxGeometry relative="1" as="geometry" />
        </mxCell>
        <mxCell id="fUU1L8BKX8t2LomsBppw-29" value="ÁREA" style="rounded=0;whiteSpace=wrap;html=1;" parent="1" vertex="1">
          <mxGeometry x="40" y="-180" width="120" height="60" as="geometry" />
        </mxCell>
        <mxCell id="fUU1L8BKX8t2LomsBppw-31" value="&lt;span style=&quot;white-space: pre;&quot;&gt;&#x9;&lt;/span&gt;id_proyecto" style="ellipse;whiteSpace=wrap;html=1;align=center;" parent="1" vertex="1">
          <mxGeometry x="230" y="90" width="100" height="40" as="geometry" />
        </mxCell>
        <mxCell id="fUU1L8BKX8t2LomsBppw-32" value="nombre" style="ellipse;whiteSpace=wrap;html=1;align=center;" parent="1" vertex="1">
          <mxGeometry x="-160" y="30" width="100" height="40" as="geometry" />
        </mxCell>
        <mxCell id="fUU1L8BKX8t2LomsBppw-33" value="rol" style="ellipse;whiteSpace=wrap;html=1;align=center;" parent="1" vertex="1">
          <mxGeometry x="-140" y="80" width="100" height="40" as="geometry" />
        </mxCell>
        <mxCell id="fUU1L8BKX8t2LomsBppw-34" value="id_tarea" style="ellipse;whiteSpace=wrap;html=1;align=center;" parent="1" vertex="1">
          <mxGeometry x="-100" y="260" width="100" height="40" as="geometry" />
        </mxCell>
        <mxCell id="fUU1L8BKX8t2LomsBppw-35" value="descripción" style="ellipse;whiteSpace=wrap;html=1;align=center;" parent="1" vertex="1">
          <mxGeometry x="-110" y="330" width="100" height="40" as="geometry" />
        </mxCell>
        <mxCell id="fUU1L8BKX8t2LomsBppw-38" style="edgeStyle=orthogonalEdgeStyle;rounded=0;orthogonalLoop=1;jettySize=auto;html=1;entryX=0.5;entryY=0;entryDx=0;entryDy=0;" parent="1" source="fUU1L8BKX8t2LomsBppw-36" target="fUU1L8BKX8t2LomsBppw-4" edge="1">
          <mxGeometry relative="1" as="geometry" />
        </mxCell>
        <mxCell id="fUU1L8BKX8t2LomsBppw-36" value="&lt;div&gt;forma parte&lt;/div&gt;" style="shape=rhombus;perimeter=rhombusPerimeter;whiteSpace=wrap;html=1;align=center;" parent="1" vertex="1">
          <mxGeometry x="40" y="-80" width="120" height="60" as="geometry" />
        </mxCell>
        <mxCell id="fUU1L8BKX8t2LomsBppw-39" value="id_user" style="ellipse;whiteSpace=wrap;html=1;align=center;" parent="1" vertex="1">
          <mxGeometry x="-140" y="-20" width="100" height="40" as="geometry" />
        </mxCell>
        <mxCell id="fUU1L8BKX8t2LomsBppw-41" value="nombre" style="ellipse;whiteSpace=wrap;html=1;align=center;" parent="1" vertex="1">
          <mxGeometry x="-130" y="-170" width="100" height="40" as="geometry" />
        </mxCell>
        <mxCell id="fUU1L8BKX8t2LomsBppw-43" value="id_area" style="ellipse;whiteSpace=wrap;html=1;align=center;" parent="1" vertex="1">
          <mxGeometry x="-110" y="-220" width="100" height="40" as="geometry" />
        </mxCell>
        <mxCell id="fUU1L8BKX8t2LomsBppw-44" value="nombre" style="ellipse;whiteSpace=wrap;html=1;align=center;" parent="1" vertex="1">
          <mxGeometry x="329" y="70" width="100" height="40" as="geometry" />
        </mxCell>
        <mxCell id="fUU1L8BKX8t2LomsBppw-46" value="descripcion" style="ellipse;whiteSpace=wrap;html=1;align=center;" parent="1" vertex="1">
          <mxGeometry x="440" y="90" width="100" height="40" as="geometry" />
        </mxCell>
        <mxCell id="fUU1L8BKX8t2LomsBppw-47" value="N" style="text;html=1;align=center;verticalAlign=middle;whiteSpace=wrap;rounded=0;" parent="1" vertex="1">
          <mxGeometry x="40" y="230" width="60" height="30" as="geometry" />
        </mxCell>
        <mxCell id="fUU1L8BKX8t2LomsBppw-49" value="1" style="text;html=1;align=center;verticalAlign=middle;whiteSpace=wrap;rounded=0;" parent="1" vertex="1">
          <mxGeometry x="40" y="150" width="60" height="30" as="geometry" />
        </mxCell>
        <mxCell id="fUU1L8BKX8t2LomsBppw-50" value="N" style="text;html=1;align=center;verticalAlign=middle;whiteSpace=wrap;rounded=0;" parent="1" vertex="1">
          <mxGeometry x="120" y="160" width="60" height="30" as="geometry" />
        </mxCell>
        <mxCell id="fUU1L8BKX8t2LomsBppw-51" value="N" style="text;html=1;align=center;verticalAlign=middle;whiteSpace=wrap;rounded=0;" parent="1" vertex="1">
          <mxGeometry x="100" y="-20" width="60" height="30" as="geometry" />
        </mxCell>
        <mxCell id="fUU1L8BKX8t2LomsBppw-52" value="1" style="text;html=1;align=center;verticalAlign=middle;whiteSpace=wrap;rounded=0;" parent="1" vertex="1">
          <mxGeometry x="100" y="-100" width="60" height="30" as="geometry" />
        </mxCell>
        <mxCell id="fUU1L8BKX8t2LomsBppw-55" value="N" style="text;html=1;align=center;verticalAlign=middle;whiteSpace=wrap;rounded=0;" parent="1" vertex="1">
          <mxGeometry x="240" y="345" width="60" height="30" as="geometry" />
        </mxCell>
        <mxCell id="fUU1L8BKX8t2LomsBppw-57" value="1" style="text;html=1;align=center;verticalAlign=middle;whiteSpace=wrap;rounded=0;" parent="1" vertex="1">
          <mxGeometry x="480" y="205" width="60" height="30" as="geometry" />
        </mxCell>
        <mxCell id="fUU1L8BKX8t2LomsBppw-63" value="id_tangible" style="ellipse;whiteSpace=wrap;html=1;align=center;" parent="1" vertex="1">
          <mxGeometry x="680" y="310" width="100" height="40" as="geometry" />
        </mxCell>
        <mxCell id="fUU1L8BKX8t2LomsBppw-64" value="nombre" style="ellipse;whiteSpace=wrap;html=1;align=center;" parent="1" vertex="1">
          <mxGeometry x="750" y="355" width="100" height="40" as="geometry" />
        </mxCell>
        <mxCell id="fUU1L8BKX8t2LomsBppw-66" value="descripcion" style="ellipse;whiteSpace=wrap;html=1;align=center;" parent="1" vertex="1">
          <mxGeometry x="730" y="415" width="100" height="40" as="geometry" />
        </mxCell>
        <mxCell id="fUU1L8BKX8t2LomsBppw-69" style="edgeStyle=orthogonalEdgeStyle;rounded=0;orthogonalLoop=1;jettySize=auto;html=1;endArrow=none;endFill=0;" parent="1" source="fUU1L8BKX8t2LomsBppw-67" target="fUU1L8BKX8t2LomsBppw-2" edge="1">
          <mxGeometry relative="1" as="geometry" />
        </mxCell>
        <mxCell id="fUU1L8BKX8t2LomsBppw-67" value="CONTRIBUYEN A" style="shape=rhombus;perimeter=rhombusPerimeter;whiteSpace=wrap;html=1;align=center;" parent="1" vertex="1">
          <mxGeometry x="510" y="205" width="150" height="80" as="geometry" />
        </mxCell>
        <mxCell id="fUU1L8BKX8t2LomsBppw-70" value="reunion" style="ellipse;whiteSpace=wrap;html=1;align=center;" parent="1" vertex="1">
          <mxGeometry x="160" y="480" width="100" height="40" as="geometry" />
        </mxCell>
        <mxCell id="fUU1L8BKX8t2LomsBppw-71" value="1" style="text;html=1;align=center;verticalAlign=middle;whiteSpace=wrap;rounded=0;" parent="1" vertex="1">
          <mxGeometry x="424" y="355" width="60" height="30" as="geometry" />
        </mxCell>
        <mxCell id="fUU1L8BKX8t2LomsBppw-72" value="N" style="text;html=1;align=center;verticalAlign=middle;whiteSpace=wrap;rounded=0;" parent="1" vertex="1">
          <mxGeometry x="590" y="280" width="60" height="30" as="geometry" />
        </mxCell>
        <mxCell id="fUU1L8BKX8t2LomsBppw-73" value="" style="endArrow=none;html=1;rounded=0;entryX=0;entryY=0.5;entryDx=0;entryDy=0;" parent="1" source="fUU1L8BKX8t2LomsBppw-33" target="fUU1L8BKX8t2LomsBppw-4" edge="1">
          <mxGeometry width="50" height="50" relative="1" as="geometry">
            <mxPoint x="-30" y="150" as="sourcePoint" />
            <mxPoint x="20" y="100" as="targetPoint" />
          </mxGeometry>
        </mxCell>
        <mxCell id="fUU1L8BKX8t2LomsBppw-74" value="" style="endArrow=none;html=1;rounded=0;entryX=0;entryY=0.5;entryDx=0;entryDy=0;exitX=1;exitY=0.5;exitDx=0;exitDy=0;" parent="1" source="fUU1L8BKX8t2LomsBppw-32" target="fUU1L8BKX8t2LomsBppw-4" edge="1">
          <mxGeometry width="50" height="50" relative="1" as="geometry">
            <mxPoint x="-40" y="98" as="sourcePoint" />
            <mxPoint x="50" y="70" as="targetPoint" />
          </mxGeometry>
        </mxCell>
        <mxCell id="fUU1L8BKX8t2LomsBppw-75" value="" style="endArrow=none;html=1;rounded=0;entryX=0;entryY=0.5;entryDx=0;entryDy=0;exitX=1;exitY=0.5;exitDx=0;exitDy=0;" parent="1" source="fUU1L8BKX8t2LomsBppw-39" target="fUU1L8BKX8t2LomsBppw-4" edge="1">
          <mxGeometry width="50" height="50" relative="1" as="geometry">
            <mxPoint x="-50" y="60" as="sourcePoint" />
            <mxPoint x="50" y="70" as="targetPoint" />
          </mxGeometry>
        </mxCell>
        <mxCell id="fUU1L8BKX8t2LomsBppw-77" value="" style="endArrow=none;html=1;rounded=0;exitX=1;exitY=0.5;exitDx=0;exitDy=0;entryX=0;entryY=0.5;entryDx=0;entryDy=0;" parent="1" source="fUU1L8BKX8t2LomsBppw-43" target="fUU1L8BKX8t2LomsBppw-29" edge="1">
          <mxGeometry width="50" height="50" relative="1" as="geometry">
            <mxPoint x="10" y="-210" as="sourcePoint" />
            <mxPoint x="60" y="-260" as="targetPoint" />
          </mxGeometry>
        </mxCell>
        <mxCell id="fUU1L8BKX8t2LomsBppw-78" value="" style="endArrow=none;html=1;rounded=0;exitX=1;exitY=0.5;exitDx=0;exitDy=0;entryX=0;entryY=0.5;entryDx=0;entryDy=0;" parent="1" source="fUU1L8BKX8t2LomsBppw-41" target="fUU1L8BKX8t2LomsBppw-29" edge="1">
          <mxGeometry width="50" height="50" relative="1" as="geometry">
            <mxPoint y="-190" as="sourcePoint" />
            <mxPoint x="50" y="-140" as="targetPoint" />
          </mxGeometry>
        </mxCell>
        <mxCell id="fUU1L8BKX8t2LomsBppw-79" value="" style="endArrow=none;html=1;rounded=0;exitX=0.443;exitY=0.017;exitDx=0;exitDy=0;entryX=0.5;entryY=1;entryDx=0;entryDy=0;exitPerimeter=0;" parent="1" source="fUU1L8BKX8t2LomsBppw-2" target="fUU1L8BKX8t2LomsBppw-31" edge="1">
          <mxGeometry width="50" height="50" relative="1" as="geometry">
            <mxPoint x="-20" y="-140" as="sourcePoint" />
            <mxPoint x="50" y="-140" as="targetPoint" />
          </mxGeometry>
        </mxCell>
        <mxCell id="fUU1L8BKX8t2LomsBppw-82" value="" style="endArrow=none;html=1;rounded=0;exitX=0.5;exitY=0;exitDx=0;exitDy=0;entryX=0.5;entryY=1;entryDx=0;entryDy=0;" parent="1" source="fUU1L8BKX8t2LomsBppw-2" target="fUU1L8BKX8t2LomsBppw-44" edge="1">
          <mxGeometry width="50" height="50" relative="1" as="geometry">
            <mxPoint x="390" y="110" as="sourcePoint" />
            <mxPoint x="440" y="60" as="targetPoint" />
          </mxGeometry>
        </mxCell>
        <mxCell id="fUU1L8BKX8t2LomsBppw-83" value="" style="endArrow=none;html=1;rounded=0;exitX=0.5;exitY=0;exitDx=0;exitDy=0;entryX=0.5;entryY=1;entryDx=0;entryDy=0;" parent="1" source="fUU1L8BKX8t2LomsBppw-2" target="fUU1L8BKX8t2LomsBppw-46" edge="1">
          <mxGeometry width="50" height="50" relative="1" as="geometry">
            <mxPoint x="364" y="180" as="sourcePoint" />
            <mxPoint x="410" y="150" as="targetPoint" />
          </mxGeometry>
        </mxCell>
        <mxCell id="fUU1L8BKX8t2LomsBppw-84" value="" style="endArrow=none;html=1;rounded=0;exitX=1;exitY=0.5;exitDx=0;exitDy=0;entryX=0;entryY=1;entryDx=0;entryDy=0;" parent="1" source="fUU1L8BKX8t2LomsBppw-3" target="fUU1L8BKX8t2LomsBppw-63" edge="1">
          <mxGeometry width="50" height="50" relative="1" as="geometry">
            <mxPoint x="640" y="320" as="sourcePoint" />
            <mxPoint x="690" y="270" as="targetPoint" />
          </mxGeometry>
        </mxCell>
        <mxCell id="fUU1L8BKX8t2LomsBppw-85" value="" style="endArrow=none;html=1;rounded=0;exitX=1;exitY=0.5;exitDx=0;exitDy=0;entryX=0;entryY=0.5;entryDx=0;entryDy=0;" parent="1" source="fUU1L8BKX8t2LomsBppw-3" target="fUU1L8BKX8t2LomsBppw-64" edge="1">
          <mxGeometry width="50" height="50" relative="1" as="geometry">
            <mxPoint x="680" y="395" as="sourcePoint" />
            <mxPoint x="705" y="354" as="targetPoint" />
          </mxGeometry>
        </mxCell>
        <mxCell id="fUU1L8BKX8t2LomsBppw-86" value="" style="endArrow=none;html=1;rounded=0;entryX=0;entryY=0.5;entryDx=0;entryDy=0;exitX=1;exitY=0.5;exitDx=0;exitDy=0;" parent="1" source="fUU1L8BKX8t2LomsBppw-3" target="fUU1L8BKX8t2LomsBppw-66" edge="1">
          <mxGeometry width="50" height="50" relative="1" as="geometry">
            <mxPoint x="670" y="380" as="sourcePoint" />
            <mxPoint x="660" y="420" as="targetPoint" />
          </mxGeometry>
        </mxCell>
        <mxCell id="fUU1L8BKX8t2LomsBppw-87" value="" style="endArrow=none;html=1;rounded=0;exitX=1;exitY=0.5;exitDx=0;exitDy=0;" parent="1" source="fUU1L8BKX8t2LomsBppw-34" target="fUU1L8BKX8t2LomsBppw-1" edge="1">
          <mxGeometry width="50" height="50" relative="1" as="geometry">
            <mxPoint y="310" as="sourcePoint" />
            <mxPoint x="50" y="260" as="targetPoint" />
          </mxGeometry>
        </mxCell>
        <mxCell id="fUU1L8BKX8t2LomsBppw-90" value="" style="endArrow=none;html=1;rounded=0;exitX=1;exitY=0.5;exitDx=0;exitDy=0;entryX=-0.015;entryY=0.378;entryDx=0;entryDy=0;entryPerimeter=0;" parent="1" source="fUU1L8BKX8t2LomsBppw-35" target="fUU1L8BKX8t2LomsBppw-1" edge="1">
          <mxGeometry width="50" height="50" relative="1" as="geometry">
            <mxPoint y="400" as="sourcePoint" />
            <mxPoint x="50" y="350" as="targetPoint" />
          </mxGeometry>
        </mxCell>
        <mxCell id="fUU1L8BKX8t2LomsBppw-91" value="" style="endArrow=none;html=1;rounded=0;exitX=0.96;exitY=0.331;exitDx=0;exitDy=0;entryX=0;entryY=0.5;entryDx=0;entryDy=0;exitPerimeter=0;" parent="1" source="fUU1L8BKX8t2LomsBppw-23" target="fUU1L8BKX8t2LomsBppw-1" edge="1">
          <mxGeometry width="50" height="50" relative="1" as="geometry">
            <mxPoint y="360" as="sourcePoint" />
            <mxPoint x="48" y="388" as="targetPoint" />
          </mxGeometry>
        </mxCell>
        <mxCell id="fUU1L8BKX8t2LomsBppw-92" value="" style="endArrow=none;html=1;rounded=0;exitX=0.593;exitY=0.081;exitDx=0;exitDy=0;entryX=0;entryY=0.5;entryDx=0;entryDy=0;exitPerimeter=0;" parent="1" source="fUU1L8BKX8t2LomsBppw-25" target="fUU1L8BKX8t2LomsBppw-1" edge="1">
          <mxGeometry width="50" height="50" relative="1" as="geometry">
            <mxPoint x="-14" y="413" as="sourcePoint" />
            <mxPoint x="50" y="395" as="targetPoint" />
          </mxGeometry>
        </mxCell>
        <mxCell id="fUU1L8BKX8t2LomsBppw-93" value="" style="endArrow=none;html=1;rounded=0;exitX=0.5;exitY=0;exitDx=0;exitDy=0;entryX=0.5;entryY=1;entryDx=0;entryDy=0;" parent="1" source="fUU1L8BKX8t2LomsBppw-26" target="fUU1L8BKX8t2LomsBppw-1" edge="1">
          <mxGeometry width="50" height="50" relative="1" as="geometry">
            <mxPoint x="19" y="453" as="sourcePoint" />
            <mxPoint x="50" y="395" as="targetPoint" />
          </mxGeometry>
        </mxCell>
        <mxCell id="fUU1L8BKX8t2LomsBppw-94" value="" style="endArrow=none;html=1;rounded=0;exitX=0.5;exitY=0;exitDx=0;exitDy=0;entryX=0.5;entryY=1;entryDx=0;entryDy=0;" parent="1" source="fUU1L8BKX8t2LomsBppw-70" target="fUU1L8BKX8t2LomsBppw-1" edge="1">
          <mxGeometry width="50" height="50" relative="1" as="geometry">
            <mxPoint x="100" y="490" as="sourcePoint" />
            <mxPoint x="110" y="425" as="targetPoint" />
          </mxGeometry>
        </mxCell>
      </root>
    </mxGraphModel>
  </diagram>
</mxfile>
